<svg width="180" height="18" viewBox="0 0 180 18" fill="none" xmlns="http://www.w3.org/2000/svg">
<path fill-rule="evenodd" clip-rule="evenodd" d="M21.5545 9.00012C21.5545 4.40012 25.2795 0.666786 29.8879 0.666786C34.4879 0.666786 38.2212 4.40012 38.2212 9.00012C38.2212 13.6085 34.4879 17.3335 29.8879 17.3335C25.2795 17.3335 21.5545 13.6085 21.5545 9.00012ZM31.7462 10.5251L33.0962 6.25847C33.1879 5.9668 32.9212 5.6918 32.6295 5.78347L28.3629 7.1168C28.1879 7.17514 28.0462 7.30847 27.9962 7.48347L26.6629 11.7585C26.5712 12.0418 26.8462 12.3168 27.1295 12.2251L31.3795 10.8918C31.5545 10.8418 31.6962 10.7001 31.7462 10.5251Z" fill="#2EE1ED"/>
<path d="M0 0.616211V16.7778H3.80366V6.79519H3.93782L7.82039 16.6752H10.2509L14.1335 6.85043H14.2677V16.7778H18.0713V0.616211H13.2339L9.13037 10.6225H8.94097L4.83744 0.616211H0Z" fill="#2EE1ED"/>
<path d="M55.3528 0.616211H51.4545V9.92808H51.3203L44.9598 0.616211H41.5981V16.7778H45.5043V7.45018H45.6069L52.0384 16.7778H55.3528V0.616211Z" fill="#2EE1ED"/>
<path d="M59.5868 16.7778H70.8557V13.6055H63.4931V10.2832H70.2797V7.10295H63.4931V3.78856H70.8557V0.616211H59.5868V16.7778Z" fill="#2EE1ED"/>
<path d="M74.2749 0.616211L80.1856 11.3801V16.7778H84.0682V11.3801L89.9789 0.616211H85.6149L82.1979 7.37915H82.0559L78.6389 0.616211H74.2749Z" fill="#2EE1ED"/>
<path d="M94.3174 16.7778H95.7931V9.35201H102.935V8.02625H95.7931V1.94197H103.669V0.616211H94.3174V16.7778Z" fill="#2EE1ED"/>
<path d="M110.592 0.616211H109.116V16.7778H110.592V0.616211Z" fill="#2EE1ED"/>
<path d="M129.253 0.616211H127.801V14.1658H127.675L118.095 0.616211H116.666V16.7778H118.142V3.24405H118.268L127.817 16.7778H129.253V0.616211Z" fill="#2EE1ED"/>
<path d="M140.063 16.7778C144.924 16.7778 147.694 13.7396 147.702 8.65756C147.702 3.63073 144.971 0.616211 140.347 0.616211H135.328V16.7778H140.063ZM136.804 15.4521V1.94197H140.26C144.182 1.94197 146.265 4.47511 146.273 8.65756C146.273 12.8795 144.143 15.4521 139.976 15.4521H136.804Z" fill="#2EE1ED"/>
<path d="M153.056 16.7778H162.589V15.4521H154.532V9.35201H161.934V8.02625H154.532V1.94197H162.431V0.616211H153.056V16.7778Z" fill="#2EE1ED"/>
<path d="M168.028 16.7778H169.504V10.2437H173.268C173.481 10.2437 173.686 10.2358 173.884 10.2201L177.427 16.7778H179.132L175.399 9.93597C177.411 9.27309 178.453 7.6159 178.453 5.45365C178.453 2.62852 176.677 0.616211 173.245 0.616211H168.028V16.7778ZM169.504 8.89431V1.94197H173.205C175.762 1.94197 177.001 3.33875 177.001 5.45365C177.001 7.56855 175.762 8.89431 173.229 8.89431H169.504Z" fill="#2EE1ED"/>
</svg>
